<svg width="38" height="38" viewBox="0 0 38 38" fill="none" xmlns="http://www.w3.org/2000/svg">
<g clip-path="url(#clip0_14_280)">
<path d="M14.25 30.0834C6.33329 32.4584 6.33329 26.1251 3.16663 25.3334M25.3333 34.8334V28.7059C25.3927 27.9509 25.2907 27.192 25.0341 26.4794C24.7775 25.7669 24.3721 25.1172 23.845 24.5734C28.8166 24.0193 34.0416 22.1351 34.0416 13.4901C34.0412 11.2795 33.1909 9.15367 31.6666 7.5526C32.3884 5.61857 32.3374 3.48082 31.5241 1.58344C31.5241 1.58344 29.6558 1.02927 25.3333 3.92677C21.7043 2.94324 17.8789 2.94324 14.25 3.92677C9.92746 1.02927 8.05913 1.58344 8.05913 1.58344C7.24589 3.48082 7.19485 5.61857 7.91663 7.5526C6.38099 9.16555 5.52979 11.3106 5.54163 13.5376C5.54163 22.1193 10.7666 24.0034 15.7383 24.6209C15.2174 25.1592 14.8156 25.8012 14.5592 26.505C14.3028 27.2088 14.1974 27.9587 14.25 28.7059V34.8334" stroke="#1E1E1E" stroke-width="4" stroke-linecap="round" stroke-linejoin="round"/>
</g>
<defs>
<clipPath id="clip0_14_280">
<rect width="38" height="38" fill="white"/>
</clipPath>
</defs>
</svg>
