<?xml version="1.0" standalone="no"?>
<!DOCTYPE svg PUBLIC "-//W3C//DTD SVG 20010904//EN"
 "http://www.w3.org/TR/2001/REC-SVG-20010904/DTD/svg10.dtd">
<svg version="1.0" xmlns="http://www.w3.org/2000/svg"
 width="512.000000pt" height="512.000000pt" viewBox="0 0 512.000000 512.000000"
 preserveAspectRatio="xMidYMid meet">

<g transform="translate(0.000000,512.000000) scale(0.100000,-0.100000)"
fill="#FAB80D" stroke="none">
<path d="M10 4712 c0 -4 16 -34 36 -66 53 -89 106 -197 164 -336 158 -383 256
-543 466 -759 196 -203 368 -310 562 -350 69 -14 197 -14 264 0 l53 12 53 -59
c68 -74 162 -214 214 -317 121 -242 191 -588 205 -1009 l6 -206 -59 30 c-53
27 -65 29 -126 25 -93 -8 -175 -46 -236 -111 -27 -29 -57 -67 -66 -85 -12 -23
-22 -31 -33 -26 -9 3 -47 11 -85 17 -139 24 -278 -22 -386 -129 -67 -66 -116
-155 -137 -247 l-11 -50 -70 -1 c-58 0 -79 -6 -132 -34 -100 -54 -180 -158
-195 -255 -20 -125 65 -271 191 -329 l47 -22 1398 -3 c1205 -2 1401 0 1425 12
40 21 154 115 190 157 18 20 42 58 53 84 27 61 20 130 -22 214 -56 111 -158
173 -285 173 -73 0 -74 0 -74 27 0 40 -39 171 -62 211 -31 52 -78 99 -123 123
-56 30 -177 30 -259 -1 -33 -12 -60 -21 -61 -19 -1 1 -7 24 -14 51 -42 172
-141 240 -346 240 -114 0 -185 -18 -258 -63 -26 -17 -47 -27 -47 -22 0 20 53
253 82 361 151 566 366 919 694 1141 l73 49 67 -41 c249 -152 553 -141 923 32
239 112 362 203 631 463 108 105 240 225 293 266 l97 75 -68 11 c-93 15 -124
24 -397 114 -132 44 -285 90 -340 104 -260 65 -459 70 -668 17 -313 -81 -576
-311 -673 -591 -28 -80 -44 -210 -26 -210 6 0 39 16 73 36 107 63 360 181 464
217 125 43 339 98 513 131 132 26 425 66 472 66 l25 -1 -25 -13 c-39 -21 -295
-118 -625 -237 -460 -165 -821 -316 -922 -385 -150 -101 -302 -259 -407 -421
-82 -127 -182 -346 -245 -537 -33 -100 -62 -198 -66 -218 -10 -55 -25 -36 -25
31 0 66 -23 250 -46 366 -60 306 -178 571 -339 760 -74 87 -603 606 -775 761
-225 202 -471 436 -466 442 8 8 272 -144 425 -245 253 -166 366 -257 536 -428
88 -89 189 -200 225 -248 36 -47 70 -85 75 -83 6 1 19 27 30 57 16 45 19 79
19 199 0 129 -4 155 -28 235 -80 263 -273 488 -531 617 -202 102 -447 151
-865 173 -147 8 -327 31 -380 50 -22 8 -40 11 -40 7z"/>
</g>
</svg>
